<?xml version="1.0" encoding="utf-8"?>
<!-- Generator: Adobe Illustrator 16.0.0, SVG Export Plug-In . SVG Version: 6.00 Build 0)  -->
<!DOCTYPE svg PUBLIC "-//W3C//DTD SVG 1.0//EN" "http://www.w3.org/TR/2001/REC-SVG-20010904/DTD/svg10.dtd">
<svg version="1.0" id="looking_glass_crop_xA0_Image_1_"
	 xmlns="http://www.w3.org/2000/svg" xmlns:xlink="http://www.w3.org/1999/xlink" x="0px" y="0px" width="1386.5141602px"
	 height="296.2285156px" viewBox="0 0 1386.5141602 296.2285156" enable-background="new 0 0 1386.5141602 296.2285156"
	 xml:space="preserve">
<g>
	<g>
		<path fill-rule="evenodd" clip-rule="evenodd" fill="none" d="M972.0834961,75.3681641c0.0087891,0,0.0175781,0,0.0253906,0
			c0-5.3125,0.0673828-10.6259766-0.0302734-15.9365234c-0.0439453-2.3867188-0.0898438-4.8647461-0.7539063-7.1196289
			c-0.4697266-1.597168-1.8007813-3.1181641-3.1474609-4.152832c-0.3330078-0.2558594-2.3681641,1.3623047-3.3642578,2.3730469
			c-3.0947266,3.1386719-4.5253906,3.5063477-8.6591797,1.6630859c-1.2421875-0.5546875-2.3691406-1.3618164-3.578125-1.9980469
			c-10.1484375-5.3354492-20.1513672-10.7617188-32.0478516-11.6586914
			c-10.0048828-0.7543945-19.9726563-0.8979492-29.5996094,1.6425781
			c-16.8837891,4.456543-30.8291016,13.9619141-41.7294922,27.5483398
			c-12.8408203,16.0039063-18.8388672,34.3203125-17.1015625,54.9580078
			c2.0107422,23.8950195,12.3691406,43.2519531,31.7783203,57.421875
			c13.8134766,10.0859375,29.7451172,13.6357422,46.5712891,13.4521484
			c11.8076172-0.1289063,22.4570313-3.9384766,32.0234375-10.9492188c1.5234375-1.1171875,3.0302734-4.8759766,4.96875-2.609375
			c1.6240234,1.8994141-1.9960938,3.3769531-3.4453125,4.8642578c-1.3828125,1.4169922-2.9882813,2.9394531-1.7490234,4.7597656
			c0.7675781,1.1259766,2.8193359,1.8671875,4.3251953,1.9208984c8.7304688,0.3046875,17.4697266,0.4189453,26.2060547,0.4628906
			c3.9335938,0.0205078,7.8896484-0.078125,11.7919922-0.5146484c1.46875-0.1630859,3.3505859-1.1240234,4.0283203-2.3046875
			c0.4482422-0.7822266-0.5976563-2.8740234-1.5097656-3.9111328c-6.8447266-7.78125-10.3164063-17.0009766-10.7714844-27.140625
			c-0.4306641-9.5605469-0.0283203-19.1669922,0.2050781-28.7470703c0.1308594-5.3974609,2.0039063-10.0639648,6.9599609-12.9628906
			c1.6298828-0.953125,2.9287109-2.3754883,2.0146484-4.1523438c-0.6943359-1.3481445-2.2089844-2.5541992-3.6396484-3.1621094
			c-1.3271484-0.5634766-3.0283203-0.2822266-4.5664063-0.3173828c-14.7177734-0.3334961-29.4423828-0.5234375-44.1542969-1.0356445
			c-7.6201172-0.2651367-14.546875-2.3696289-18.8876953-9.4892578c-0.6904297-1.1318359-1.7939453-2.1074219-2.9003906-2.871582
			c-2.4824219-1.7138672-4.6240234-0.9482422-5.5810547,1.9267578c-0.3183594,0.9560547-0.4472656,2.0146484-0.4580078,3.0292969
			c-0.1015625,9.5947266-0.2011719,19.1904297-0.2021484,28.784668c0,2.5224609-0.3330078,5.527832,2.5839844,6.7211914
			c3.09375,1.2666016,4.640625-1.3955078,6.1875-3.3813477c3.0576172-3.9243164,7.0263672-5.996582,11.9619141-5.9624023
			c5.3027344,0.0361328,10.6259766,0.0581055,15.9003906,0.5283203c6.3964844,0.5693359,7.265625,1.8164063,6.8652344,8.137207
			c-0.0654297,1.0214844-0.2285156,2.0449219-0.4375,3.0493164c-1.8789063,9.0395508-5.4638672,17.1972656-11.6435547,24.2421875
			c-11.4736328,13.0771484-32.9677734,15.9521484-47.1728516,5.8398438
			c-8.9716797-6.3876953-14.7060547-15.2246094-17.6630859-25.7797852
			c-4.2509766-15.1723633-3.3789063-30.534668-1.2890625-45.9038086c1.0742188-7.894043,3.2363281-15.480957,7.7460938-22.1181641
			c6.2695313-9.2299805,14.0224609-16.3911133,25.9453125-17.3481445c7.2255859-0.5805664,14.4726563-0.765625,21.4316406,1.2583008
			c4.5371094,1.3203125,8.9951172,3.3793945,13.0322266,5.8520508c8.6689453,5.3120117,14.84375,13.0571289,19.71875,21.9033203
			c2.2294922,4.0493164,4.5224609,8.0717773,6.9951172,11.9750977c1.7021484,2.6894531,4.5068359,2.5053711,5.9697266-0.3393555
			c0.59375-1.1547852,0.7929688-2.6186523,0.8115234-3.9462891
			C972.1293945,87.703125,972.0834961,81.5356445,972.0834961,75.3681641z M374.1982422,116.1201172
			c-0.0087891,0-0.0175781,0-0.0263672,0c0,16.1005859,0.0668945,32.2011719-0.0317383,48.3017578
			c-0.0410156,6.7324219-2.0146484,12.8173828-7.0214844,17.65625c-0.9780273,0.9453125-1.8520508,2.0351563-2.6040039,3.1708984
			c-1.8349609,2.7724609-1.2197266,4.3115234,2.0605469,5.1464844c1.487793,0.3789063,3.0327148,0.7470703,4.5522461,0.7480469
			c11.6420898,0.0058594,23.2861328,0.0146484,34.9248047-0.2158203c2.2338867-0.0439453,5.3530273,0.4853516,6.4287109-2.1679688
			c1.2104492-2.9853516-1.7885742-4.4677734-3.4599609-6.2587891c-3.6845703-3.9472656-6.9838867-8.0595703-7.0073242-13.828125
			c-0.0239258-5.9941406-0.0126953-11.9892578,0.0527344-17.9824219c0.0083008-0.7646484,0.4345703-1.5253906,0.6669922-2.2871094
			c0.7607422,0.2851563,1.7539063,0.3554688,2.2480469,0.8876953c7.796875,8.3984375,15.7470703,16.6708984,23.1831055,25.3808594
			c3.605957,4.2226563,3.1323242,5.7255859-0.1450195,10.5009766c-2.2158203,3.2304688-1.6040039,4.8125,2.4262695,5.4453125
			c2.8603516,0.4492188,5.7915039,0.6240234,8.690918,0.6201172c10.1020508-0.0146484,20.2089844-0.0263672,30.3032227-0.3671875
			c2.0068359-0.0673828,4.7885742-1.0537109,5.7509766-2.5537109c1.4570313-2.2705078-1.3325195-3.9013672-2.7495117-5.4443359
			c-9.8452148-10.7167969-19.9350586-21.2109375-29.637207-32.0546875
			c-8.6738281-9.6938477-17.0341797-19.6743164-25.3632813-29.668457c-3.5908203-4.309082-3.2978516-5.4726563,1.4755859-8.2768555
			c5.8999023-3.465332,12.0014648-6.5922852,17.8520508-10.137207c4.1420898-2.5092773,7.8574219-3.5927734,12.2861328-0.3754883
			c2.9985352,2.1787109,5.1450195,0.9267578,5.8046875-2.6962891c0.2133789-1.1708984,0.2338867-2.3886719,0.2290039-3.5849609
			c-0.0332031-8.5639648-0.0009766-17.1318359-0.2280273-25.6918945c-0.0454102-1.706543-0.6513672-3.8930664-1.8198242-4.9599609
			c-1.8354492-1.675293-3.777832,0.050293-5.5351563,1.1040039c-13.6513672,8.1831055-27.3115234,16.3515625-40.9750977,24.5126953
			c-0.8803711,0.5263672-1.7880859,1.0253906-2.7324219,1.418457c-1.5830078,0.6586914-2.6870117,0.2026367-2.9516602-1.5922852
			c-0.1245117-0.8417969-0.0957031-1.7075195-0.1152344-2.5634766c-0.5019531-21.5708008-0.9829102-43.140625,0.1645508-64.7114258
			c0.152832-2.8676758-0.2158203-5.8520508-0.9140625-8.6391602c-0.3520508-1.4072266-1.7553711-3.0385742-3.0893555-3.597168
			c-1.9355469-0.8085938-3.0844727,1.0205078-3.800293,2.6074219c-5.5449219,12.2929688-16.0874023,18.7021484-27.8061523,23.746582
			c-1.2568359,0.5405273-2.5952148,0.9443359-3.7563477,1.6435547c-2.7763672,1.6723633-2.965332,3.5888672-0.6826172,5.746582
			c0.3701172,0.3491211,0.8149414,0.6254883,1.2441406,0.9077148c7.4672852,4.9248047,10.7407227,12.2001953,11.4208984,20.8037109
			c0.4038086,5.1166992,0.6137695,10.2583008,0.6567383,15.3911133
			C374.2636719,93.5097656,374.1982422,104.8149414,374.1982422,116.1201172z M1158.8588867,134.909668
			c-0.1386719,0.0014648-0.2763672,0.0014648-0.4140625,0.0024414c0-3.4267578,0.2080078-6.8676758-0.0439453-10.2749023
			c-0.4921875-6.6464844-0.59375-13.4194336-2.0361328-19.8764648c-2.2167969-9.9277344-7.9726563-17.5576172-18.2119141-20.4155273
			c-10.4023438-2.902832-21.0224609-4.8979492-31.9277344-4.4038086c-13.8017578,0.625-26.7294922,3.5488281-37.4599609,13.1855469
			c-7.4746094,6.7148438-9.9628906,14.8544922-8.5205078,24.5131836c0.6621094,4.4389648,2.9970703,7.7763672,7.2099609,9.2250977
			c3.1875,1.0957031,6.6533203,2.0561523,9.96875,1.9736328c8.9169922-0.222168,20.8662109-8.4575195,15.8066406-21.8911133
			c-0.2998047-0.7998047-0.5527344-1.6264648-0.7246094-2.4619141c-0.5097656-2.4570313,0.1318359-4.6147461,2.53125-5.5600586
			c8.0986328-3.190918,16.3476563-3.6098633,24.4560547-0.1855469c1.7568359,0.7412109,3.6201172,2.4829102,4.3232422,4.2148438
			c1.5820313,3.8969727,3.1708984,8.0273438,3.4589844,12.1538086c0.3408203,4.9208984-2.0097656,9-7.3291016,10.4301758
			c-4.9482422,1.3300781-9.8662109,2.8466797-14.8857422,3.815918c-6.2099609,1.199707-12.5068359,1.9658203-18.7773438,2.8369141
			c-13.9501953,1.9345703-26.2558594,11.4799805-27.0693359,29.8842773
			c-0.625,14.1328125,5.0126953,23.7128906,18.0820313,29.109375c7.3798828,3.046875,15.1855469,4.0537109,23.0957031,4.3798828
			c11.8066406,0.4873047,23.1660156-1.8222656,34.2578125-5.6513672c2.9580078-1.0214844,5.5566406-0.9580078,8.1943359,1.0400391
			c7.6455078,5.7861328,15.9736328,5.3085938,24.4023438,2.1113281c5.234375-1.9853516,7.8417969-7.3027344,6.6904297-12.9824219
			c-1.1201172-5.5244141-4.625-8.3916016-10.4609375-8.5585938c-4.2578125-0.1210938-4.5830078-0.3818359-4.6025391-4.7890625
			C1158.8276367,156.1269531,1158.8588867,145.519043,1158.8588867,134.909668z M648.809082,143.2719727
			c-0.0820313,0-0.1635742-0.0009766-0.2456055-0.0009766c0-5.4824219,0.1005859-10.9677734-0.0244141-16.4472656
			c-0.168457-7.3535156,0.0776367-14.7583008-2.3740234-21.8818359
			c-2.7744141-8.0600586-7.0126953-14.7758789-15.2519531-18.3686523
			c-14.9125977-6.5039063-29.9589844-7.9707031-45.3657227-1.8632813c-6.0820313,2.4116211-7.6943359,1.4824219-8.2128906-5.0507813
			c-0.3378906-4.2587891-0.1357422-8.5576172-0.3925781-12.8266602c-0.1352539-2.2421875-0.7001953-4.5922852-3.3261719-5.2553711
			c-2.4682617-0.6230469-3.6645508,1.2563477-4.890625,2.953125c-6.7416992,9.3300781-14.8300781,16.894043-25.8325195,21.1689453
			c-6.8354492,2.6557617-6.9296875,4.9692383-0.878418,9.2368164c4.3574219,3.0737305,6.8881836,6.9057617,7.0654297,12.3793945
			c0.3598633,11.1293945,1.2807617,22.2495117,1.315918,33.3759766c0.0322266,10.0976563-0.7275391,20.203125-1.2949219,30.2949219
			c-0.2207031,3.9345703-0.9233398,7.7177734-3.5742188,11.0410156c-3.5219727,4.4130859-2.3476563,7.0136719,3.2519531,7.9492188
			c1.34375,0.2246094,2.7285156,0.2617188,4.0961914,0.2841797c6.3408203,0.1025391,12.6816406,0.2363281,19.0224609,0.2294922
			c4.9677734-0.0068359,9.9575195,0.0244141,14.8916016-0.4443359c1.5712891-0.1484375,3.5419922-1.5302734,4.355957-2.9179688
			c1.1674805-1.9912109-0.6523438-3.4707031-2.2661133-4.5361328c-4.4858398-2.9628906-6.4716797-7.4570313-7.4418945-12.4414063
			c-0.6850586-3.5214844-1.21875-7.125-1.2919922-10.7021484c-0.2124023-10.2792969-0.3056641-20.5668945-0.1577148-30.8466797
			c0.1142578-7.9067383,0.8125-15.7124023,5.2641602-22.7285156c4.4072266-6.9472656,12.8876953-10.5512695,20.9306641-8.4580078
			c8.9174805,2.3203125,12.340332,6.9111328,12.5595703,16.8549805c0.0229492,1.0288086-0.003418,2.0571289-0.0024414,3.0859375
			c0.0063477,15.5952148-0.0688477,31.190918,0.0585938,46.784668c0.0556641,6.8544922,0.8496094,13.6142578-4.9677734,19.1132813
			c-2.3579102,2.2285156-0.9702148,5.2119141,2.2695313,6.3466797c1.1123047,0.3896484,2.3500977,0.6083984,3.5268555,0.59375
			c10.4516602-0.1171875,20.9033203-0.2519531,31.3520508-0.5107422c2.5527344-0.0634766,5.4960938-0.2578125,6.453125-3.1982422
			c0.8618164-2.6513672-1.6850586-4.0087891-3.3046875-5.3007813c-4.1748047-3.328125-5.4121094-7.6425781-5.3466797-12.7167969
			C648.8881836,160.0703125,648.809082,151.6699219,648.809082,143.2719727z M1320.0932617,143.15625
			c3.5947266,0,7.1914063-0.0639648,10.7851563,0.0185547c3.5546875,0.0820313,6.7197266,1.2646484,9.2587891,3.8378906
			c5.3144531,5.3857422,6.5458984,11.7724609,4.7109375,18.9677734
			c-1.8515625,7.2597656-6.0976563,12.4814453-13.5048828,13.9267578c-4.0615234,0.7919922-8.59375,0.6064453-12.6484375-0.3105469
			c-8.5097656-1.9248047-9.65625-5.0761719-5.5888672-12.7744141c2.6806641-5.0693359,2.3115234-8.4140625-1.6171875-12.5839844
			c-6.4453125-6.8388672-14.4101563-8.1367188-23.1132813-5.7978516c-3.5917969,0.9648438-6.5546875,3.2304688-7.7949219,6.9013672
			c-1.4892578,4.40625-2.2148438,8.9169922-1.0751953,13.6269531c3.7060547,15.3271484,14.1630859,24.8681641,30.9443359,27.4345703
			c13.828125,2.1152344,27.7636719,1.9638672,41.390625-1.1494141c9.3769531-2.1425781,17.5791016-6.8056641,22.0371094-16.1259766
			c3.8105469-7.96875,4.9443359-16.3369141,3.5371094-25.0185547c-2.0449219-12.6210938-8.1347656-18.8701172-19.1835938-22.1245117
			c-9.1328125-2.6899414-18.5136719-3.2333984-27.8974609-4.0981445c-3.8554688-0.3544922-7.8554688-1.2124023-11.3642578-2.7885742
			c-4.7421875-2.1303711-6.9892578-6.4072266-6.8632813-11.6918945c0.1201172-5.0092773,2.8515625-8.3984375,7.2392578-10.3310547
			c6.5585938-2.890625,13.2246094-3.3286133,19.859375-0.0317383c5.2216797,2.5952148,8.9433594,6.2524414,9.3574219,12.4750977
			c0.2167969,3.2714844,1.8925781,5.7998047,4.4384766,7.7988281c4.7617188,3.7353516,11.8095703,4.28125,16.3808594,1.2524414
			c4.359375-2.8896484,6.0302734-8.4956055,4.5810547-14.6933594c-2.0859375-8.9125977-8.0869141-14.7543945-15.7441406-18.6225586
			c-17.0029297-8.590332-34.8583984-10.6259766-53.3867188-5.4282227
			c-10.2695313,2.8808594-17.6064453,9.34375-21.7646484,18.8881836
			c-5.8378906,13.4013672-2.4287109,31.0546875,15.7431641,36.1884766
			C1305.8452148,142.8901367,1312.8354492,143.9541016,1320.0932617,143.15625z M1223.8032227,197.5
			c0.03125-0.2529297,0.0615234-0.5048828,0.0917969-0.7587891c3.0830078,0,6.1787109,0.1767578,9.2470703-0.0341797
			c8.3837891-0.5751953,16.6933594-1.4765625,24.4960938-5.0703125c7.0742188-3.2568359,11.8398438-8.3251953,14.546875-15.7128906
			c2.5605469-6.9853516,3.2617188-14.1318359,1.9892578-21.2392578
			c-2.1220703-11.8496094-7.3164063-21.2963867-21.1142578-24.2084961
			c-8.1796875-1.7265625-16.5761719-2.4047852-24.8369141-3.784668c-3.9980469-0.6679688-8.1523438-1.3217773-11.7929688-2.9643555
			c-4.5615234-2.059082-6.6132813-6.3540039-6.5292969-11.3764648c0.0820313-4.9189453,2.7148438-8.3349609,6.9501953-10.6152344
			c13.2070313-7.1074219,26.359375-0.8095703,28.9580078,13.862793c1.2783203,7.2270508,8.0888672,11.5068359,15.8681641,9.9731445
			c7.2294922-1.425293,11.1035156-7.6748047,9.3222656-15.0107422
			c-2.4541016-10.0986328-9.0634766-16.8740234-18.0615234-21.1547852
			c-16.7978516-7.9907227-34.2685547-9.3969727-51.9052734-3.0947266c-4.8867188,1.746582-9.7382813,4.4487305-13.6904297,7.793457
			c-9.0166016,7.6279297-10.5634766,17.9448242-8.6015625,29.059082
			c1.3945313,7.9003906,5.8671875,13.2983398,13.2998047,16.3237305c7.0898438,2.8867188,14.40625,4.1826172,22.0800781,3.8974609
			c5.2890625-0.1972656,10.6484375-0.3769531,15.8828125,0.2358398c7.4619141,0.8740234,11.9707031,5.8569336,12.5458984,13.3735352
			c0.6152344,8.0117188-1.7197266,15.1572266-8.6542969,19.6796875c-7.0996094,4.6298828-14.9306641,4.6328125-22.6025391,1.1953125
			c-4.1181641-1.8466797-4.9628906-5.3408203-2.7294922-9.3857422c0.3300781-0.5986328,0.7402344-1.1533203,1.1201172-1.7226563
			c2.3388672-3.4951172,2.28125-6.9785156,0.2460938-10.6357422c-3.8886719-6.9833984-15.3925781-10.9101563-23.9492188-7.9990234
			c-5.0947266,1.7333984-8.2392578,5.0664063-9.3056641,10.5673828
			c-3.0556641,15.7451172,7.9912109,32.4824219,24.2978516,35.7822266
			C1208.4790039,195.9951172,1216.1870117,196.5224609,1223.8032227,197.5z M180.394043,193.6152344
			c18.7851563-0.109375,32.9667969-5.6699219,44.4907227-16.2480469
			c15.6484375-14.3632813,19.9174805-33.074707,14.9433594-53.2109375
			c-4.4453125-17.9970703-15.4389648-31.5551758-32.7856445-39.2236328
			c-13.3735352-5.9111328-27.3461914-7.5424805-40.980957-2.0249023
			c-21.2807617,8.6103516-32.4907227,25.581543-35.6796875,47.8486328
			c-1.6494141,11.5131836,1.6181641,22.4282227,6.4384766,32.862793
			C145.9560547,183.3935547,161.7641602,192.8154297,180.394043,193.6152344z M249.6069336,137.8486328
			c0,0.1118164-0.0537109,1.3120117,0.0083008,2.5073242c1.0043945,19.4526367,9.2387695,35.3442383,25.7075195,45.5473633
			c25.1816406,15.6005859,53.9873047,6.1396484,70.7456055-11.5058594
			c16.3505859-17.2158203,17.0380859-42.1210938,8.5566406-59.9345703
			c-5.5136719-11.5800781-14.1010742-20.6567383-24.9833984-27.2773438
			c-12.9672852-7.8876953-27.1958008-9.4638672-41.5849609-5.2148438
			C260.8378906,90.0063477,248.7348633,116.7861328,249.6069336,137.8486328z M67.7578125,190.4248047
			c-0.0004883-0.0341797-0.0004883-0.0673828-0.0004883-0.1005859c17.8168945,0,35.6337891,0.0166016,53.4506836-0.0136719
			c4.3764648-0.0068359,4.9970703-0.9189453,4.6254883-5.1513672c-0.9135742-10.3984375-1.6601563-20.8105469-2.5405273-31.2119141
			c-0.1791992-2.1103516,0.4604492-4.9814453-2.3422852-5.6464844c-2.7827148-0.6611328-4.2246094,1.7128906-5.453125,3.8251953
			c-0.7739258,1.3300781-1.3798828,2.7578125-2.1459961,4.0927734c-1.6157227,2.8183594-3.1943359,5.6660156-4.956543,8.3916016
			c-2.6621094,4.1201172-6.4619141,6.6796875-11.4018555,6.9716797c-8.8764648,0.5244141-17.7651367,1.0419922-26.6523438,1.109375
			c-4.2426758,0.0322266-8.5219727-0.8076172-12.7324219-1.5527344c-4.7192383-0.8349609-7.6069336-3.6953125-8.2163086-8.59375
			c-0.1694336-1.359375-0.4301758-2.7167969-0.4702148-4.0800781c-0.434082-14.71875-0.9526367-29.4360352-1.2075195-44.1586914
			c-0.2695313-15.5859375-0.6494141-31.1855469-0.2695313-46.7617188
			c0.2451172-10.0463867,2.3945313-19.7666016,10.9985352-26.6552734c1.0258789-0.8208008,2.1582031-2.996582,1.7548828-3.7739258
			c-0.6323242-1.2211914-2.4726563-1.9101563-3.9160156-2.5771484c-0.7158203-0.3305664-1.6865234-0.140625-2.5415039-0.1337891
			c-11.9912109,0.1015625-23.9829102,0.1987305-35.9736328,0.331543c-2.0532227,0.0219727-4.1826172-0.1025391-6.1318359,0.4018555
			c-1.4799805,0.3828125-3.2792969,1.387207-3.8886719,2.6293945c-0.4057617,0.8266602,0.7016602,2.9199219,1.6962891,3.8261719
			c6.1914063,5.6401367,8.8266602,12.9995117,9.9580078,20.9047852c0.8466797,5.9174805,1.2124023,11.9511719,1.2094727,17.9335938
			c-0.0078125,21.9204102-0.1962891,43.8417969-0.4575195,65.7612305
			c-0.0791016,6.6713867-0.2353516,13.3833008-1.0429688,19.9926758
			c-0.8276367,6.7744141-2.1835938,13.5439453-7.1665039,18.8720703c-0.9702148,1.0380859-1.4921875,2.4951172-2.2211914,3.7587891
			c1.5268555,0.5263672,3.0424805,1.0878906,4.5864258,1.5585938c0.4726563,0.1435547,1.0209961,0.0478516,1.5351563,0.0478516
			C33.1484375,190.4248047,50.453125,190.4248047,67.7578125,190.4248047z M1023.5834961,191.34375
			c5.9960938,0,11.9921875,0.0214844,17.9882813-0.0107422c2.3623047-0.0136719,5.4150391,0.4023438,6.1630859-2.2705078
			c0.3564453-1.2753906-1.8066406-3.2939453-2.9072266-4.9228516c-0.4736328-0.7011719-1.1875-1.2353516-1.7207031-1.9023438
			c-3.4433594-4.3076172-6.7275391-8.6083984-6.6328125-14.6181641c0.1083984-6.8476563-0.2050781-13.7001953-0.2382813-20.5512695
			c-0.1484375-30.8359375-0.3251953-61.671875-0.3505859-92.5078125
			c-0.0068359-8.2148438,0.6542969-16.4291992,0.6855469-24.6455078c0.0185547-4.9418945-0.3935547-9.9121094-1.0361328-14.8149414
			c-0.1806641-1.3823242-1.6025391-3.112793-2.9042969-3.7177734c-1.8759766-0.871582-3.0419922,0.8950195-3.9248047,2.4311523
			c-0.4257813,0.7421875-0.8251953,1.5024414-1.2119141,2.2651367c-3.4453125,6.7617188-8.5585938,11.9741211-15.1123047,15.6723633
			c-4.4570313,2.5151367-9.1289063,4.6538086-13.7304688,6.9077148c-4.5683594,2.237793-5.0009766,4.6064453-0.78125,7.2885742
			c7.2763672,4.6254883,9.9960938,11.1381836,9.9560547,19.5405273
			c-0.0771484,16.4423828,0.3203125,32.8862305,0.3867188,49.3300781
			c0.0742188,18.3305664-0.0126953,36.6611328-0.0068359,54.9921875c0.0019531,5.6191406-1.7275391,10.4199219-6.265625,14.0019531
			c-0.8007813,0.6318359-1.59375,1.3349609-2.1914063,2.1503906c-1.6943359,2.3076172-1.0244141,4.2539063,1.7695313,5.0195313
			c1.1357422,0.3105469,2.3740234,0.3378906,3.5664063,0.34375
			C1011.2514648,191.3574219,1017.4174805,191.3408203,1023.5834961,191.34375z M519.9887695,113.4243164
			c0-13.6879883,0.0205078-27.3764648-0.0205078-41.0644531c-0.0068359-2.2148438,0.0009766-4.4970703-0.503418-6.6293945
			c-0.9433594-3.9936523-3.7241211-4.8242188-6.753418-2.1503906c-1.1396484,1.0053711-2.1162109,2.2407227-2.9902344,3.4941406
			c-5.9575195,8.5473633-13.984375,14.425293-23.5117188,18.3959961c-1.5786133,0.6586914-3.2250977,1.1870117-4.7314453,1.9829102
			c-3.4165039,1.8037109-3.6411133,3.8227539-0.8134766,6.2695313c0.2583008,0.2231445,0.5449219,0.4160156,0.8339844,0.5986328
			c6.8076172,4.3232422,9.7392578,10.4145508,9.609375,18.5615234c-0.25,15.7431641,0.3007813,31.5-0.0424805,47.2392578
			c-0.1860352,8.5185547-0.9785156,17.1582031-7.7358398,23.7529297c-1.7832031,1.7402344-1.4658203,3.9238281,0.7094727,5.1347656
			c1.5737305,0.8759766,3.5185547,1.3154297,5.3393555,1.4697266c3.5756836,0.3046875,7.1796875,0.3662109,10.7729492,0.3652344
			c8.7280273,0,17.4570313-0.0742188,26.1845703-0.1650391c1.9047852-0.0205078,4.246582-0.1484375,4.6035156-2.3310547
			c0.2207031-1.3515625-0.8496094-3.1542969-1.7958984-4.4121094c-3.8803711-5.1542969-6.8012695-10.6953125-7.4125977-17.2099609
			c-0.6547852-6.9785156-1.4882813-13.9609375-1.6708984-20.956543
			C519.7788086,134.9951172,519.9863281,124.2070313,519.9887695,113.4243164z M528.0039063,39.3100586
			c-1.2529297-1.4584961-2.2211914-2.840332-3.4399414-3.9477539c-2.1508789-1.9545898-4.6469727-3.5566406-6.6523438-5.6386719
			c-3.675293-3.8168945-7.0800781-7.894043-10.6333008-11.8295898c-2.8901367-3.2011719-4.9169922-3.3208008-7.527832,0.0922852
			c-5.0332031,6.578125-10.8139648,12.3237305-17.3339844,17.4306641c-3.5322266,2.7661133-3.3764648,5.5151367-0.1772461,8.6391602
			c3.0610352,2.9882813,6.1567383,5.9423828,9.190918,8.9589844c3.0366211,3.0180664,5.8920898,6.2314453,9.0561523,9.1064453
			c3.0605469,2.7802734,5.3334961,2.5654297,7.934082-0.2553711c5.7963867-6.284668,11.6113281-12.5537109,17.3515625-18.890625
			C526.6430664,42.0151367,527.1557617,40.7294922,528.0039063,39.3100586z"/>
		<g>
			<path fill-rule="evenodd" clip-rule="evenodd" d="M720.2241211,288.9072266
				c-11.7314453-0.7763672-23.3984375-1.0039063-34.6162109-4.7089844
				c-12.1254883-4.0058594-22.6953125-10.3388672-30.2529297-20.9980469
				c-8.6123047-12.1464844-9.5351563-33.203125,2.605957-45.6884766c5.6713867-4.8974609,7.9213867-6.1474609,12.2182617-8.2597656
				c2.828125-1.4296875,3.7368164-1.7001953,5.4912109-2.7431641c1.5869141-1.3945313,1.4697266-2.1015625,0.0117188-3.2324219
				c-3.2998047-2.0371094-5.5429688-3.6005859-8.0498047-5.9121094c-4.0175781-3.7021484-5.3842773-8.1494141-4-13.75
				c2.125-8,8.5195313-16.0488281,17.3193359-19.7421875c4.1518555-1.7421875,4.1040039-2.1132813,0.5200195-5.2197266
				c-4.1337891-3.5849609-8.0859375-7.3847656-12.0170898-11.1938477
				c-8.1621094-7.9072266-10.6972656-18.5942383-8.7299805-29.0644531
				c5.2827148-22.0297852,20.2685547-31.0244141,39.7075195-35.9111328
				c14.1484375-3.5566406,28.5869141-3.1098633,42.5351563,1.8725586
				c9.8105469,3.5043945,18.4560547,8.9223633,25.5507813,16.6889648
				c7.8515625,8.5942383,16.96875,14.8637695,29.1074219,15.4125977c0.8447266,0.0380859,1.7050781,0.2431641,2.5126953,0.5092773
				c3.7197266,1.2231445,4.7792969,4.5336914,1.7744141,6.9897461c-2.9863281,2.440918-6.5273438,4.3554688-10.0859375,5.9042969
				c-3.4257813,1.4916992-7.1464844,2.3774414-10.8076172,3.2353516c-2.8925781,0.6772461-4.1533203,2.3427734-4.9707031,5.1176758
				c-1.296875,4.3935547-2.5791016,8.9467773-4.8427734,12.8696289
				c-4.7900391,8.296875-13.1181641,11.5917969-21.8955078,14.0097656
				c-10.8583984,2.9912109-22.0566406,2.6992188-33.1269531,3.6943359
				c-3.7363281,0.3359375-7.515625,0.8310547-11.1162109,1.8310547c-2.1982422,0.6113281-4.3613281,2.0283203-6.0654297,3.5986328
				c-3.6816406,3.3925781-4.3857422,8.2841797-2.2832031,12.7109375c1.8818359,3.9619141,5.5849609,5.7617188,10.6806641,5.4550781
				c8.3681641-0.5048828,16.7412109-1.1806641,25.1171875-1.2460938c13.3896484-0.1035156,26.7519531,0.8710938,39.71875,4.390625
				c6.4042969,1.7382813,16.7939453,6.6328125,21.3554688,9.5869141c8.7871094,6.4970703,14.6669922,16,16.4941406,27.3339844
				c0.5830078,5.2314453,0.4150391,6.4404297-0.1601563,11.6660156
				c-2.0888672,18.9511719-14.7099609,30.3496094-31.9521484,36.46875
				c-7.4951172,2.6611328-15.6083984,4.8027344-23.5478516,5.8652344
				C741.090332,288.4482422,733.7573242,288.9072266,720.2241211,288.9072266z M740.753418,207.1396484
				c-8.2949219-0.2050781-26.5068359-0.1171875-38.3222656,3.2148438
				c-7.4238281,2.7597656-13.0947266,6.1416016-17.5317383,12.1201172
				c-5.4272461,7.3144531-5.8579102,15.84375-5.4477539,24.5185547c0.3999023,8.4521484,4.7294922,14.5546875,11.7255859,18.7412109
				c3.3339844,1.9951172,7.0517578,3.5673828,10.7978516,4.6005859c4.4257813,1.21875,9.0488281,1.8183594,13.6240234,2.3867188
				c17.2578125,2.1435547,31.796875,0.1367188,47.0361328-8.9091797
				c9.8310547-5.8349609,15.6220703-13.1982422,16.3662109-25.9003906
				c-0.7460938-11.5175781-4.2441406-18.0478516-12.2441406-23.0478516
				C761.2573242,210.1142578,752.2573242,207.6142578,740.753418,207.1396484z M718.2573242,152.9941406
				c4.5,0,7.0605469-0.2246094,11.25-1.0048828c11.3359375-2.1123047,17.1943359-9.3769531,20.4921875-20.3427734
				c3.0078125-13.5322266-5.6171875-31.5322266-20.6171875-34.5839844c-3.3388672-0.5517578-5.125-0.8232422-9.3583984-0.8935547
				c-10.0166016,0.4453125-15.8916016,2.4453125-23.3486328,10.2514648
				c-7.6279297,9.1875-9.3691406,19.2485352-4.4204102,30.1025391
				C697.1049805,147.1601563,705.6450195,152.5820313,718.2573242,152.9941406z"/>
			<path fill-rule="evenodd" clip-rule="evenodd" d="M972.0834961,75.3681641
				c0.0107422,7.0791016,0.0458984,12.3349609-0.0351563,18.5014648c-0.0185547,1.3276367-0.2177734,2.7915039-0.8115234,3.9462891
				c-1.4628906,2.8447266-4.2675781,3.0288086-5.9697266,0.3393555c-2.4726563-3.9033203-4.765625-7.9257813-6.9951172-11.9750977
				c-4.875-8.8461914-11.5957031-17.7539063-20.2646484-23.065918c-4.0371094-2.4726563-8.5-5.25-14.25-6.5
				c-7.5107422-1.3686523-12.75-1.5-17.75-0.5c-11.7285156,2.3457031-21.4160156,7.8325195-27.8632813,18.4003906
				c-4.0136719,7.5566406-5.1630859,11.1171875-7.7460938,22.1181641
				c-1.3066406,7.8134766-2.9619141,30.7314453,1.2890625,45.9038086
				c2.9570313,10.5551758,8.6914063,19.3920898,17.6630859,25.7797852
				c14.2050781,10.1123047,35.6992188,7.2373047,47.1728516-5.8398438
				c6.1796875-7.0449219,9.7646484-15.2026367,11.6435547-24.2421875c0.2089844-1.0043945,0.3720703-2.027832,0.4375-3.0493164
				c0.4003906-6.3208008-0.46875-7.5678711-6.8652344-8.137207c-5.2744141-0.4702148-10.5976563-0.4921875-15.9003906-0.5283203
				c-4.9355469-0.0341797-8.9042969,2.0380859-11.9619141,5.9624023c-1.546875,1.9858398-3.09375,4.6479492-6.1875,3.3813477
				c-2.9169922-1.1933594-2.5839844-4.1987305-2.5839844-6.7211914c0.0009766-9.5942383-0.1992188-19.3081055-0.0976563-28.902832
				c0.0107422-1.0146484,0.2509766-2.9223633,0.5-3.375c0.75-2.5,3.3564453-3.1767578,5.8388672-1.4628906
				c1.1064453,0.7641602,2.2099609,1.7397461,2.9003906,2.871582c4.3408203,7.1196289,11.2675781,9.2241211,18.8876953,9.4892578
				c14.7119141,0.512207,29.4365234,0.7021484,44.1542969,1.0356445c1.5380859,0.0351563,2.3623047-0.0395508,4.5664063,0.3173828
				c2.5273438,0.7490234,3.0830078,1.2758789,3.7773438,2.6240234c0.9140625,1.7768555-0.5224609,3.7373047-2.1523438,4.6904297
				c-4.9560547,2.8989258-6.8291016,7.5654297-6.9599609,12.9628906
				c-0.2333984,9.5800781-0.6357422,19.1865234-0.2050781,28.7470703
				c0.4550781,10.1396484,3.5712891,20.4316406,9.9042969,26.7646484c2.7880859,2.2939453,3.0712891,3.9462891,2.9091797,4.578125
				c-0.171875,1.2539063-1.8710938,1.8681641-4.5605469,2.0136719c-3.9023438,0.4365234-7.3769531,0.1386719-11.3105469,0.1181641
				c-8.7363281-0.0439453-17.9570313,0.2382813-26.6875-0.0664063c-1.5058594-0.0537109-3.4375-0.1972656-4.3251953-1.9208984
				c-0.1699219-1.6669922,0.6796875-2.4296875,2.8466797-3.5957031c2.4169922-0.9169922,4.6669922-4.9169922,1.9472656-6.1464844
				c-1.2128906-0.5117188-2.3173828,0.3798828-4.78125,2.3544922c-9.5664063,7.0107422-20.0029297,11.1933594-31.8105469,11.3222656
				c-16.8261719,0.1835938-32.7578125-3.3662109-46.5712891-13.4521484
				c-19.4091797-14.1699219-29.7675781-33.5268555-31.7783203-57.421875
				c-1.7373047-20.6376953,4.2607422-38.9541016,17.1015625-54.9580078
				c10.9003906-13.5864258,24.8457031-23.0917969,41.7294922-27.5483398
				c9.6269531-2.5405273,19.5947266-2.3969727,29.5996094-1.6425781
				c11.8964844,0.8969727,21.8994141,6.3232422,32.0478516,11.6586914c1.2089844,0.6362305,2.3359375,1.4433594,3.578125,1.9980469
				c4.1337891,1.8432617,6.7587891,1.3076172,9.8535156-1.8310547c1.4375-1.5,2.8291016-2.0273438,3.0722656-2.0053711
				c2.0380859-0.3369141,3.1777344,1.4418945,3.0527344,3.3178711c0.125,2.4375-0.0234375,18.3789063-0.0234375,23.6914063
				C972.1010742,75.3681641,972.0922852,75.3681641,972.0834961,75.3681641z"/>
			<path fill-rule="evenodd" clip-rule="evenodd" d="M374.1982422,116.1201172
				c0-11.3051758,0.0654297-22.6103516-0.0297852-33.9145508c-0.0429688-5.1328125-0.2529297-10.2744141-0.6567383-15.3911133
				c-0.6801758-8.6035156-3.9536133-15.8789063-11.4208984-20.8037109
				c-0.4291992-0.2822266-0.8740234-0.5585938-1.2441406-0.9077148c-2.2827148-2.1577148-2.09375-4.0742188,0.6826172-5.746582
				c1.1611328-0.6992188,2.4995117-1.1030273,3.7563477-1.6435547c11.71875-5.0444336,22.2612305-11.4536133,27.8061523-23.746582
				c0.7158203-1.5869141,1.7753906-3.1557617,3.800293-2.6074219c1.8652344,0.5053711,2.8017578,2.175293,3.0893555,3.597168
				c0.378418,1.8720703,0.6044922,6.5717773,0.6508789,8.6582031c-0.1210938,27.8754883,0.0307617,54.5009766,0.2138672,67.2558594
				c0.0258789,1.8139648,1.3686523,2.2509766,2.9516602,1.5922852c0.9443359-0.3930664,1.8520508-0.8920898,2.7324219-1.418457
				c13.6635742-8.1611328,27.3237305-16.3295898,40.9750977-24.5126953c1.7573242-1.0537109,3.699707-2.7792969,5.5351563-1.1040039
				c1.168457,1.0668945,1.7744141,3.253418,1.8198242,4.9599609c0.2270508,8.5600586,0.1948242,17.1279297,0.2280273,25.6918945
				c0.0048828,1.1962891-0.015625,2.4140625-0.2290039,3.5849609c-0.659668,3.6230469-2.8061523,4.875-5.8046875,2.6962891
				c-4.4287109-3.2172852-8.144043-2.1337891-12.2861328,0.3754883c-5.8505859,3.5449219-11.9521484,6.671875-17.8520508,10.137207
				c-4.7734375,2.8041992-5.0664063,3.9677734-1.4755859,8.2768555c8.3291016,9.9941406,16.6894531,19.9746094,25.3632813,29.668457
				c9.7021484,10.84375,19.7919922,21.3378906,29.637207,32.0546875c2.6938477,2.7851563,3.3154297,3.9912109,2.7495117,5.4443359
				c-0.6469727,1.6611328-3.7441406,2.4863281-5.7509766,2.5537109
				c-10.0942383,0.3408203-20.2011719,0.3525391-30.3032227,0.3671875c-2.8994141,0.0039063-5.8305664-0.1708984-8.690918-0.6201172
				c-4.0302734-0.6328125-4.6420898-2.2148438-2.4262695-5.4453125c3.2773438-4.7753906,3.7509766-6.2783203,0.1450195-10.5009766
				c-7.4360352-8.7099609-15.3862305-16.9824219-23.1831055-25.3808594
				c-0.4941406-0.5322266-1.640625-1.1484375-2.4228516-0.7128906c-0.25,0.2587891-0.5170898,1.3818359-0.5419922,2.6621094
				c-0.434082,4.2988281-0.3740234,14.0693359,0.0073242,17.8779297c0.1083984,4.7460938,3.3125,9.4355469,6.9970703,13.3828125
				c1.6713867,1.7910156,4.6704102,3.2734375,3.4599609,6.2587891c-1.0756836,2.6533203-4.1948242,2.1240234-6.4287109,2.1679688
				c-11.6386719,0.2304688-23.2827148,0.2216797-34.9248047,0.2158203
				c-1.5195313-0.0009766-3.0644531-0.3691406-4.5522461-0.7480469c-3.2802734-0.8349609-3.8955078-2.3740234-2.0605469-5.1464844
				c0.7519531-1.1357422,1.6259766-2.2255859,2.6040039-3.1708984c5.0068359-4.8388672,6.9804688-10.9238281,7.0214844-17.65625
				c0.0986328-16.1005859,0.0317383-32.2011719,0.0317383-48.3017578
				C374.1806641,116.1201172,374.1894531,116.1201172,374.1982422,116.1201172z"/>
			<path fill-rule="evenodd" clip-rule="evenodd" d="M1158.8588867,137.3642578
				c0,10.609375-0.03125,18.7626953,0.0136719,29.3710938c0.0195313,4.4072266,0.3447266,4.6679688,4.6025391,4.7890625
				c5.8359375,0.1669922,9.3408203,3.0341797,10.4609375,8.5585938c1.1513672,5.6796875-0.6777344,10.3652344-5.6904297,12.9824219
				c-7.4042969,3.2998047-17.7568359,3.6748047-25.4023438-2.1113281c-2.6376953-1.9980469-5.2363281-2.0615234-8.1943359-1.0400391
				c-11.0917969,3.8291016-22.4511719,6.1386719-34.2578125,5.6513672
				c-7.9101563-0.3261719-15.7158203-1.3330078-23.0957031-4.3798828
				c-13.0693359-5.3964844-18.7070313-14.9765625-18.0820313-29.109375
				c0.8134766-18.4042969,13.1191406-27.949707,27.0693359-29.8842773
				c6.3496094-1.2026367,12.5673828-1.637207,18.7773438-2.8369141c7.8222656-1.3657227,11.6259766-2.1157227,14.9472656-3.4907227
				c4.5-1.125,6.875-7.375,7.1171875-12.8857422c0.0117188-2.2294922-0.1171875-4.8642578-1.4921875-8.6142578
				c-0.9541016-2.5952148-3.5-4.625-5.75-6.125c-5.25-3.125-15.2919922-3.625-22.7919922-1.125
				c-4.1660156,1.5-5.0947266,4.9145508-4.5849609,7.371582c0.171875,0.8354492,0.4248047,1.6621094,0.7246094,2.4619141
				c5.0595703,13.4335938-6.8896484,21.6689453-15.8066406,21.8911133
				c-3.3154297,0.0825195-6.3115234-0.2954102-9.4990234-1.3911133c-4.2128906-1.4487305-7.0175781-5.3686523-7.6796875-9.8076172
				c-1.4423828-9.6586914,1.0458984-17.7983398,8.5205078-24.5131836
				c10.7304688-9.6367188,23.6582031-12.5605469,37.4599609-13.1855469
				c10.9052734-0.4941406,21.5253906,1.5009766,31.9277344,4.4038086
				c10.3544922,3.019043,15.7119141,9.3120117,17.9287109,19.2397461
				C1159.2573242,117.6142578,1158.7202148,137.3657227,1158.8588867,137.3642578z M1126.7583008,159.9492188
				c-0.1347656,0-0.0654297-16.5708008-0.1669922-20.3364258c0-3.3330078-3.5830078-0.4150391-6.9169922,0.7519531
				c-5,2-12.4169922,3.581543-18.9169922,6.4155273c-8.8330078,4.6660156-11.6884766,13.8818359-9.4248047,23.3408203
				c0.7705078,3.2207031,2.8984375,5.5595703,5.9931641,7.3066406c7.4052734,4.1796875,17.5986328,3.0195313,23.1826172,1.2695313
				c3.6660156-1.0830078,6-3.1650391,6.25-6.8310547C1126.8383789,167.4433594,1126.7583008,164.2333984,1126.7583008,159.9492188z"
				/>
			<path fill-rule="evenodd" clip-rule="evenodd" d="M648.809082,143.2719727
				c0,8.3979492,0.0791016,16.7983398-0.0292969,25.1958008c-0.0654297,5.0742188,1.171875,9.3886719,5.3466797,12.7167969
				c1.6196289,1.2919922,4.1665039,2.6494141,3.3046875,5.3007813c-0.9570313,2.9404297-3.9003906,3.1347656-6.453125,3.1982422
				c-10.4487305,0.2587891-20.9003906,0.3935547-31.3520508,0.5107422c-1.1767578,0.0146484-2.4145508-0.2041016-3.5268555-0.59375
				c-3.2397461-1.1347656-4.6274414-4.1181641-2.2695313-6.3466797c5.8173828-5.4990234,5.0234375-12.2587891,4.9677734-19.1132813
				c-0.1274414-15.59375-0.0522461-31.1894531-0.0585938-46.784668c-0.0009766-1.0288086,0.0253906-2.0571289,0.0024414-3.0859375
				c-0.2192383-9.9438477-3.6420898-14.534668-12.5595703-16.8549805
				c-8.0429688-2.0932617-16.5234375,1.5107422-20.9306641,8.4580078
				c-4.4516602,7.0161133-5.1499023,14.8217773-5.2641602,22.7285156
				c-0.1479492,10.2797852-0.0546875,20.5673828,0.1577148,30.8466797
				c0.0732422,3.5771484,0.6069336,7.1806641,1.2919922,10.7021484c0.9702148,4.984375,2.9560547,9.4785156,7.4418945,12.4414063
				c1.6137695,1.0654297,3.4335938,2.5449219,2.2661133,4.5361328c-0.8139648,1.3876953-2.784668,2.7695313-4.355957,2.9179688
				c-4.934082,0.46875-9.9238281,0.4375-14.8916016,0.4443359c-6.3408203,0.0068359-12.6816406-0.1269531-19.0224609-0.2294922
				c-1.3676758-0.0224609-2.7524414-0.0595703-4.0961914-0.2841797c-5.5996094-0.9355469-6.7739258-3.5361328-3.2519531-7.9492188
				c2.6508789-3.3232422,3.3535156-7.1064453,3.5742188-11.0410156c0.5673828-10.0917969,1.3271484-20.1972656,1.2949219-30.2949219
				c-0.0351563-11.1264648-0.9560547-22.246582-1.315918-33.3759766c-0.1772461-5.4736328-2.7080078-9.3056641-7.0654297-12.3793945
				c-6.0512695-4.2675781-5.9570313-6.5810547,0.878418-9.2368164
				c11.0024414-4.2749023,19.0908203-11.8388672,25.8325195-21.1689453c1.2260742-1.6967773,2.4223633-3.5761719,4.890625-2.953125
				c2.6259766,0.6630859,3.190918,3.0131836,3.3261719,5.2553711c0.2568359,4.269043,0.0546875,8.5678711,0.3925781,12.8266602
				c0.5185547,6.5332031,2.1308594,7.4624023,8.2128906,5.0507813c15.4067383-6.1074219,30.453125-4.640625,45.3657227,1.8632813
				c8.2392578,3.5927734,12.4775391,10.3085938,15.2519531,18.3686523
				c2.4516602,7.1235352,2.2055664,14.5283203,2.3740234,21.8818359c0.125,5.4794922,0.0244141,10.9648438,0.0244141,16.4472656
				C648.6455078,143.2709961,648.7270508,143.2719727,648.809082,143.2719727z"/>
			<path fill-rule="evenodd" clip-rule="evenodd" d="M1320.0932617,143.15625
				c-7.2578125,0.7978516-14.2480469-0.2661133-21.2832031-2.2539063
				c-18.171875-5.1337891-21.5810547-22.7871094-15.7431641-36.1884766
				c4.1582031-9.5444336,11.4951172-16.0073242,21.7646484-18.8881836
				c18.5283203-5.1977539,36.3837891-3.1621094,53.3867188,5.4282227
				c7.6572266,3.8681641,13.6582031,9.7099609,15.7441406,18.6225586
				c1.4492188,6.1977539-0.2216797,11.8037109-4.5810547,14.6933594
				c-4.5712891,3.0288086-11.6191406,2.4829102-16.3808594-1.2524414c-2.5458984-1.9990234-4.2216797-4.5273438-4.4384766-7.7988281
				c-0.4140625-6.2226563-4.1357422-9.8798828-9.3574219-12.4750977c-6.6347656-3.296875-13.3007813-2.8588867-19.859375,0.0317383
				c-4.3876953,1.9326172-7.1191406,5.3217773-7.2392578,10.3310547c-0.1259766,5.284668,2.1210938,9.5615234,6.8632813,11.6918945
				c3.5087891,1.5761719,7.5087891,2.434082,11.3642578,2.7885742c9.3837891,0.8647461,18.7646484,1.4082031,27.8974609,4.0981445
				c11.0488281,3.2543945,17.1386719,9.503418,19.1835938,22.1245117
				c1.4072266,8.6816406,0.2734375,17.0498047-3.5371094,25.0185547
				c-4.6201172,8.2363281-12.6601563,13.9833984-22.0371094,16.1259766
				c-13.6269531,3.1132813-27.5625,3.2646484-41.390625,1.1494141c-16.78125-2.5664063-27.2382813-12.1074219-30.9443359-27.4345703
				c-1.1396484-4.7099609-0.4140625-9.2207031,1.0751953-13.6269531c1.2402344-3.6708984,4.203125-5.9365234,7.7949219-6.9013672
				c8.703125-2.3388672,16.6679688-1.0410156,23.1132813,5.7978516c3.9287109,4.1699219,4.2978516,7.5146484,1.6171875,12.5839844
				c-4.0673828,7.6982422-2.9208984,10.8496094,5.5888672,12.7744141c4.0546875,0.9169922,8.5869141,1.1025391,12.6484375,0.3105469
				c7.4072266-1.4453125,11.6533203-6.6669922,13.5048828-13.9267578
				c1.8349609-7.1953125,0.6035156-13.5820313-4.7109375-18.9677734c-2.5390625-2.5732422-5.7041016-3.7558594-9.2587891-3.8378906
				C1327.284668,143.0922852,1323.6879883,143.15625,1320.0932617,143.15625z"/>
			<path fill-rule="evenodd" clip-rule="evenodd" d="M1200.972168,194.4755859
				c-16.3066406-3.2998047-27.3535156-20.0371094-24.2978516-35.7822266
				c1.0664063-5.5009766,4.2109375-8.8339844,9.3056641-10.5673828c8.5566406-2.9111328,20.0605469,1.015625,23.9492188,7.9990234
				c2.0351563,3.6572266,2.0927734,7.140625-0.2460938,10.6357422c-0.3798828,0.5693359-0.7900391,1.1240234-1.1201172,1.7226563
				c-2.2333984,4.0449219-1.3886719,7.5390625,2.7294922,9.3857422c7.671875,3.4375,15.5029297,3.4345703,22.6025391-1.1953125
				c6.9345703-4.5224609,9.2695313-11.6679688,8.6542969-19.6796875
				c-0.5751953-7.5166016-5.0839844-12.4995117-12.5458984-13.3735352c-5.234375-0.612793-10.59375-0.4331055-15.8828125-0.2358398
				c-7.6738281,0.2851563-14.9902344-1.0107422-22.0800781-3.8974609
				c-7.4326172-3.0253906-11.9052734-8.4233398-13.2998047-16.3237305
				c-1.9619141-11.1142578-0.4150391-21.4311523,8.6015625-29.059082c3.9521484-3.3447266,8.8037109-6.046875,13.6904297-7.793457
				c17.6367188-6.3022461,35.1074219-4.8959961,51.9052734,3.0947266
				c8.9980469,4.2807617,15.6074219,11.0561523,18.0615234,21.1547852c1.78125,7.3359375-2.0927734,13.5854492-9.3222656,15.0107422
				c-7.7792969,1.5336914-14.5898438-2.7460938-15.8681641-9.9731445
				c-2.5986328-14.6723633-15.7509766-20.9702148-28.9580078-13.862793
				c-4.2353516,2.2802734-6.8681641,5.6962891-6.9501953,10.6152344c-0.0839844,5.0224609,1.9677734,9.3173828,6.5292969,11.3764648
				c3.640625,1.6425781,7.7949219,2.2963867,11.7929688,2.9643555c8.2607422,1.3798828,16.6572266,2.0581055,24.8369141,3.784668
				c13.7978516,2.9121094,18.9921875,12.3588867,21.1142578,24.2084961
				c1.2724609,7.1074219,0.5712891,14.2539063-1.9892578,21.2392578
				c-2.7070313,7.3876953-8.6777344,12.4404297-14.546875,15.7128906c-7.8027344,3.59375-16.1123047,4.4951172-24.4960938,5.0703125
				c-3.0683594,0.2109375-6.1640625,0.0341797-9.2470703,0.0341797
				C1223.8647461,196.9951172,1213.2573242,196.53125,1200.972168,194.4755859z"/>
			<path fill-rule="evenodd" clip-rule="evenodd" d="M184.2944336,193.5527344
				c-19.0371094-0.6884766-37.2871094-11.1884766-48.5371094-30.9384766c-4.8203125-10.4345703-6.5-21.75-5.3754883-30.8579102
				c2.1254883-19.2983398,14.3989258-40.2382813,35.6796875-48.8486328
				c13.6347656-5.5175781,27.6074219-3.8862305,40.980957,2.0249023
				c17.3466797,7.668457,28.340332,21.2265625,32.7856445,39.2236328
				c3.4291992,20.9580078-0.5708008,38.9580078-14.9433594,53.2109375
				C207.7158203,193.1269531,193.5073242,193.5527344,184.2944336,193.5527344z M160.1547852,133.7568359
				c-0.3413086,11.1435547,0.7841797,18.4951172,4.6875,25.25c4.8139648,8.3310547,14.0327148,15.7382813,23.2490234,14.3203125
				c10.0458984-1.5449219,17.050293-9.9335938,19.9375-19.3496094c2.5498047-8.315918,3.1132813-16.8588867,1.2929688-25.390625
				c-1.8842773-8.8344727-5.3828125-17.0297852-11.7666016-23.5917969
				c-7.4560547-7.6630859-16.7978516-8.2143555-24.1152344-2.0449219
				c-3.8173828,3.2182617-7.2192383,8.0141602-9.0766602,12.7583008
				C161.6459961,122.6484375,160.1762695,129.7993164,160.1547852,133.7568359z"/>
			<path fill-rule="evenodd" clip-rule="evenodd" d="M249.6069336,137.8486328
				c-0.8720703-21.0625,11.230957-47.8422852,38.449707-55.8779297c14.3891602-4.2490234,28.6176758-2.6728516,41.5849609,5.2148438
				c10.8823242,6.6206055,19.4697266,15.6972656,24.9833984,27.2773438
				c8.6323242,18.4013672,6.8598633,43.6181641-6.8676758,59.1513672c-15.8110352,18.4667969-42.9824219,27.5-72.4345703,12.2890625
				c-15.8154297-9.0390625-24.703125-26.0947266-25.7075195-45.5473633
				C249.5532227,139.1606445,249.6069336,137.9604492,249.6069336,137.8486328z M329.1811523,128.5522461
				c-0.8798828-6.4379883-3.2573242-14.4379883-7.9238281-20.9379883c-3.4169922-4.5-9-10.5-18.1923828-10.5307617
				c-9.4746094-0.0317383-18.8579102,11.746582-21.2304688,18.3789063
				c-4.1948242,11.7280273-5.2436523,27.6523438-1.4160156,38.1821289
				c2.6274414,7.2275391,7.3535156,13.4853516,13.8183594,17.3662109
				c10.0068359,6.0068359,20.7705078,3.1035156,27.5205078-4.6464844
				C326.0073242,161.3642578,332.7573242,145.6142578,329.1811523,128.5522461z"/>
			<path fill-rule="evenodd" clip-rule="evenodd" d="M125.8334961,185.1591797
				c0.371582,4.2324219,1.2231445,5.4589844-4.3261719,5.3144531c-17.8256836,0.1630859-61.012207,0.0839844-106.9165039-0.0185547
				c-1.6762695,0.0791016-4.6669922-0.1738281-4.8686523-1.6386719c-0.0483398-1.2851563,0.3681641-2.5400391,2.2211914-3.7587891
				c6.3139648-4.4472656,6.6469727-9.6142578,7.1665039-18.8720703c0.8076172-6.609375,0.9638672-13.3212891,1.0429688-19.9926758
				c0.2612305-21.9194336,0.449707-43.8408203,0.4575195-65.7612305c0.0029297-5.9824219,0.2158203-11.4418945-0.2280273-18.0673828
				c-0.5-9.5-0.75-14.875-10.2734375-20.8320313c-2.5390625-1.6054688-3.0756836-2.918457-2.7495117-4.0014648
				c0.3857422-1.652832,2.2871094-2.0258789,3.8144531-2.0830078c4.5209961-0.1689453,31.0917969-0.0664063,43.0830078-0.1679688
				c0.8549805-0.0068359,2.9238281-0.0102539,3.9169922,0.1679688c1.5649414,0.2807617,2.0737305,0.5908203,2.4169922,1.4165039
				c0.2084961,0.875,0.0620117,3.0395508-3.3793945,5.0698242c-8.2871094,5.3466797-8.4541016,6.8461914-9.7666016,25.6103516
				c-0.3798828,15.5761719,0,31.1757813,0.2695313,46.7617188c0.2548828,14.7226563,0.7734375,29.4399414,1.2075195,44.1586914
				c0.0400391,1.3632813,0.3007813,2.7207031,0.4702148,4.0800781c0.609375,4.8984375,3.5297852,7.5917969,8.2163086,8.59375
				c5.1489258,1.1005859,31.6669922,1.5478516,40.4765625,0.3388672c7.5058594-1.0302734,8.84375-2.5761719,11.5058594-6.6962891
				c1.762207-2.7255859,5.2700195-11.0283203,6.8149414-14.3417969c1.0327148-2.2148438,1.5644531-4.6381836,4.1850586-3.4916992
				c2.6665039,1.1665039,2.5229492,4.8891602,2.7021484,6.9995117"/>
			<path fill-rule="evenodd" clip-rule="evenodd" d="M1008.2124023,114.8173828
				c-0.0664063-16.4438477-0.4638672-32.8876953-0.3867188-49.3300781
				c0.0400391-8.4023438-2.6796875-14.9150391-9.9560547-19.5405273c-4.2197266-2.6821289-3.7871094-5.0507813,0.78125-7.2885742
				c4.6015625-2.2539063,9.2734375-4.3925781,13.7304688-6.9077148c6.5537109-3.6982422,11.6669922-8.9106445,15.1123047-15.6723633
				c0.3867188-0.7626953,0.7861328-1.5229492,1.2119141-2.2651367c0.8828125-1.5361328,2.0488281-3.3027344,3.9248047-2.4311523
				c1.3017578,0.6049805,2.7236328,2.3354492,2.9042969,3.7177734c0.6425781,4.902832,1.0546875,9.8730469,1.0361328,14.8149414
				c-0.03125,8.2163086-0.1533203,18.8178711-0.1464844,27.0327148c0.0253906,30.8359375-0.3369141,59.284668-0.1884766,90.1206055
				c0.0332031,6.8510742,0.3466797,13.7036133,0.2382813,20.5512695
				c-0.0947266,6.0097656,3.1894531,10.3105469,6.6328125,14.6181641c0.5332031,0.6669922,1.2470703,1.2011719,1.7207031,1.9023438
				c1.1005859,1.6289063,3.2636719,3.6474609,2.9072266,4.9228516c-0.7480469,2.6728516-3.8007813,2.2568359-6.1630859,2.2705078
				c-5.9960938,0.0322266-11.9921875,0.0107422-17.9882813,0.0087891
				c-6.1660156-0.0009766-12.3320313,0.015625-18.4990234-0.0166016c-1.1923828-0.0058594-2.4306641-0.0332031-3.5664063-0.34375
				c-2.7939453-0.765625-3.5380859-2.0585938-1.84375-4.3662109c0.5-0.8339844,1.9492188-2.2021484,2.75-2.8339844
				c4.5380859-3.5820313,5.7832031-8.3525391,5.78125-13.9716797"/>
			<path fill-rule="evenodd" clip-rule="evenodd" d="M519.9682617,72.3598633
				c0.0410156,13.6879883,0.0205078,27.3764648,0.019043,41.0644531
				c-0.0009766,10.7827148-0.2084961,21.5708008,0.0727539,32.3457031
				c0.1826172,6.9956055,1.0161133,13.9780273,1.6708984,20.956543c0.6113281,6.5146484,3.5322266,12.0556641,7.4125977,17.2099609
				c0.9462891,1.2578125,2.0166016,3.0605469,1.7958984,4.4121094c-0.3569336,2.1826172-2.6987305,2.3105469-4.6035156,2.3310547
				c-8.7275391,0.0908203-17.456543,0.1650391-26.1845703,0.1650391c-3.5932617,0.0009766-7.1972656-0.0605469-10.7729492-0.3652344
				c-1.8208008-0.1542969-3.765625-0.59375-5.3393555-1.4697266c-2.175293-1.2109375-2.4926758-3.3945313-0.7094727-5.1347656
				c6.7573242-6.5947266,7.5498047-15.234375,7.7358398-23.7529297c0.3432617-15.7392578-0.2075195-31.4960938,0.0424805-47.2392578
				c0.1298828-8.1469727-2.8017578-14.2382813-9.609375-18.5615234c-0.2890625-0.1826172-0.5756836-0.3754883-0.8339844-0.5986328
				c-2.8276367-2.4467773-2.6030273-4.4658203,0.8134766-6.2695313c1.5063477-0.7958984,3.152832-1.3242188,4.7314453-1.9829102
				c9.5273438-3.9707031,17.5541992-9.8486328,23.5117188-18.3959961c0.8740234-1.253418,1.8505859-2.4887695,2.9902344-3.4941406
				c3.0292969-2.6738281,5.8100586-1.8432617,6.753418,2.1503906"/>
			<path fill-rule="evenodd" clip-rule="evenodd" d="M528.0039063,39.3100586c0,1.0541992-0.9682617,2.456543-2.2319336,3.6655273
				c-5.7402344,6.3369141-11.5551758,12.605957-17.3515625,18.890625c-2.6005859,2.8208008-4.8735352,3.0356445-7.934082,0.2553711
				c-3.1640625-2.875-6.0195313-6.0883789-9.0561523-9.1064453c-3.0341797-3.0166016-6.1298828-5.9707031-9.190918-8.9589844
				c-3.1992188-3.1240234-3.3549805-5.8730469,0.1772461-8.6391602
				c6.5200195-5.1069336,12.3007813-10.8525391,17.3339844-17.4306641c2.6108398-3.4130859,4.6376953-3.293457,7.527832-0.0922852
				c3.5532227,3.9355469,6.9580078,8.0126953,10.6333008,11.8295898c2.0053711,2.0820313,4.3769531,3.8305664,6.6523438,5.6386719
				C526.293457,36.7368164,527.6972656,38.1513672,528.0039063,39.3100586z"/>
		</g>
	</g>
	<path fill="none" d="M113.3764648,192.2021484"/>
</g>
<path fill="none" d="M-24.7426758-67.8857422"/>
</svg>
